<svg width="42" height="40" viewBox="0 0 42 40" fill="none" xmlns="http://www.w3.org/2000/svg">
<g clip-path="url(#clip0_940_4928)">
<path fill-rule="evenodd" clip-rule="evenodd" d="M13.1719 0H25.4188C26.1961 0.00177681 26.9411 0.311366 27.4908 0.861037C28.0405 1.41071 28.3501 2.15571 28.3518 2.93306V10.6155C28.3501 11.3929 28.0405 12.1379 27.4908 12.6876C26.9411 13.2372 26.1961 13.5468 25.4188 13.5486H18.2408L13.7908 17.3797C13.6912 17.4648 13.562 17.5069 13.4315 17.4968C13.301 17.4867 13.1798 17.4252 13.0945 17.3259C13.0154 17.232 12.9735 17.1123 12.9768 16.9896L13.2156 13.5654H13.1752C12.3979 13.5636 11.6529 13.2541 11.1032 12.7044C10.5535 12.1547 10.244 11.4097 10.2422 10.6324V2.93306C10.244 2.15629 10.5531 1.4118 11.102 0.862221C11.651 0.312645 12.3951 0.00266424 13.1719 0ZM17.3259 29.9832C18.0188 28.8698 18.2677 27.114 17.5143 25.9469C17.2116 25.4793 17.3327 24.7225 17.3327 24.0801C17.3327 17.6892 6.15204 17.6892 6.15204 24.0801C6.15204 24.8806 6.33367 25.4255 5.90313 26.0679C5.1665 27.1308 5.54659 29.0145 6.16549 29.9933C6.79448 31.8231 9.19273 32.886 7.14094 34.7898C5.08914 36.6936 0.837538 34.3088 0 40H41.332C40.5685 35.402 36.9593 37.743 35.4591 35.7047C34.1911 34.0027 35.7955 33.6562 36.2933 32.1695C36.7911 31.3858 37.0972 29.8722 36.5052 29.0178C36.1689 28.5099 36.3034 27.9818 36.3034 27.336C36.3034 22.1931 27.5412 22.1931 27.5412 27.336C27.5412 27.8473 27.6388 28.5436 27.3966 28.9169C26.7911 29.8587 26.9929 31.2714 27.5479 32.1628C27.9583 33.6058 29.6098 34.2886 28.557 35.7417C27.5042 37.1948 25.0622 36.9156 23.5486 37.7935C21.9475 35.8325 18.1837 36.5624 16.5052 34.699C14.6418 32.6303 16.7911 31.9072 17.3394 29.9899L17.3259 29.9832ZM29.7915 5.97376C30.3563 6.08353 30.8753 6.36002 31.2815 6.76758C31.5469 7.01304 31.7589 7.31058 31.9041 7.64161C32.0494 7.97264 32.1248 8.33006 32.1258 8.69156V15.2775C32.1267 16.0391 31.8262 16.7701 31.2898 17.3109C30.7535 17.8516 30.025 18.1581 29.2634 18.1635H29.1591L29.4652 22.1594L24.218 18.039H16.2092L19.112 15.0891H27.3596C28.0058 15.0874 28.625 14.8299 29.082 14.3729C29.5389 13.916 29.7964 13.2967 29.7982 12.6505V6.16885C29.7982 6.10158 29.7982 6.03767 29.7982 5.97376H29.7915ZM14.6182 8.54692C14.4937 8.53666 14.3776 8.47994 14.2929 8.38803C14.2083 8.29612 14.1613 8.17574 14.1613 8.05079C14.1613 7.92584 14.2083 7.80546 14.2929 7.71355C14.3776 7.62164 14.4937 7.56492 14.6182 7.55466H21.8971C22.0216 7.56492 22.1377 7.62164 22.2224 7.71355C22.307 7.80546 22.354 7.92584 22.354 8.05079C22.354 8.17574 22.307 8.29612 22.2224 8.38803C22.1377 8.47994 22.0216 8.53666 21.8971 8.54692H14.6182ZM14.6182 5.26068C14.4844 5.26068 14.3561 5.20752 14.2615 5.1129C14.1668 5.01828 14.1137 4.88995 14.1137 4.75614C14.1137 4.62233 14.1668 4.49399 14.2615 4.39937C14.3561 4.30475 14.4844 4.2516 14.6182 4.2516H24.0599C24.1937 4.2516 24.322 4.30475 24.4166 4.39937C24.5113 4.49399 24.5644 4.62233 24.5644 4.75614C24.5644 4.88995 24.5113 5.01828 24.4166 5.1129C24.322 5.20752 24.1937 5.26068 24.0599 5.26068H14.6182ZM25.4154 0.9889H13.1719C12.6568 0.990673 12.1633 1.19607 11.7991 1.56029C11.4349 1.92451 11.2295 2.41799 11.2277 2.93306V10.6155C11.2295 11.1306 11.4349 11.6241 11.7991 11.9883C12.1633 12.3525 12.6568 12.5579 13.1719 12.5597H13.7403C13.8082 12.56 13.8753 12.5742 13.9375 12.6016C13.9996 12.6289 14.0554 12.6687 14.1015 12.7186C14.1476 12.7684 14.1829 12.8272 14.2052 12.8913C14.2276 12.9554 14.2365 13.0235 14.2314 13.0912L14.0397 15.8628L17.7127 12.7043C17.8026 12.6154 17.9228 12.5638 18.0491 12.5597H25.4154C25.9305 12.5579 26.424 12.3525 26.7882 11.9883C27.1524 11.6241 27.3578 11.1306 27.3596 10.6155V2.93306C27.3578 2.41799 27.1524 1.92451 26.7882 1.56029C26.424 1.19607 25.9305 0.990673 25.4154 0.9889Z" fill="#751DC7"/>
</g>
<defs>
<clipPath id="clip0_940_4928">
<rect width="41.332" height="40" fill="white"/>
</clipPath>
</defs>
</svg>
